<svg width="57" height="67" viewBox="0 0 57 67" fill="none" xmlns="http://www.w3.org/2000/svg">
<path d="M54.2812 10.0625H40.2188V6.54688C40.2188 4.99287 39.6014 3.50252 38.5026 2.40367C37.4037 1.30483 35.9134 0.6875 34.3594 0.6875H22.6406C21.0866 0.6875 19.5963 1.30483 18.4974 2.40367C17.3986 3.50252 16.7812 4.99287 16.7812 6.54688V10.0625H2.71875C2.09715 10.0625 1.50101 10.3094 1.06147 10.749C0.621931 11.1885 0.375 11.7846 0.375 12.4062C0.375 13.0279 0.621931 13.624 1.06147 14.0635C1.50101 14.5031 2.09715 14.75 2.71875 14.75H5.20898L7.99219 59.416C8.2002 63.3491 11.2148 66.3125 15.0234 66.3125H41.9766C45.8042 66.3125 48.7588 63.415 49.0078 59.4277L51.791 14.75H54.2812C54.9029 14.75 55.499 14.5031 55.9385 14.0635C56.3781 13.624 56.625 13.0279 56.625 12.4062C56.625 11.7846 56.3781 11.1885 55.9385 10.749C55.499 10.3094 54.9029 10.0625 54.2812 10.0625ZM19.2085 56.9375H19.125C18.5176 56.9379 17.9338 56.7024 17.4966 56.2808C17.0593 55.8592 16.8029 55.2843 16.7812 54.6772L15.6094 21.8647C15.5872 21.2431 15.8129 20.6382 16.2368 20.183C16.6607 19.7278 17.248 19.4596 17.8696 19.4375C18.4912 19.4154 19.0962 19.641 19.5514 20.0649C20.0066 20.4888 20.2747 21.0762 20.2969 21.6978L21.4688 54.5103C21.4799 54.8181 21.4303 55.1251 21.3227 55.4137C21.2151 55.7024 21.0517 55.967 20.8418 56.1924C20.6319 56.4178 20.3796 56.5997 20.0993 56.7275C19.819 56.8554 19.5163 56.9267 19.2085 56.9375ZM30.8438 54.5938C30.8438 55.2154 30.5968 55.8115 30.1573 56.251C29.7177 56.6906 29.1216 56.9375 28.5 56.9375C27.8784 56.9375 27.2823 56.6906 26.8427 56.251C26.4032 55.8115 26.1562 55.2154 26.1562 54.5938V21.7812C26.1562 21.1596 26.4032 20.5635 26.8427 20.124C27.2823 19.6844 27.8784 19.4375 28.5 19.4375C29.1216 19.4375 29.7177 19.6844 30.1573 20.124C30.5968 20.5635 30.8438 21.1596 30.8438 21.7812V54.5938ZM35.5312 10.0625H21.4688V6.54688C21.467 6.39249 21.4961 6.23931 21.5544 6.09634C21.6126 5.95336 21.6989 5.82347 21.808 5.7143C21.9172 5.60512 22.0471 5.51887 22.1901 5.4606C22.3331 5.40234 22.4862 5.37323 22.6406 5.375H34.3594C34.5138 5.37323 34.6669 5.40234 34.8099 5.4606C34.9529 5.51887 35.0828 5.60512 35.192 5.7143C35.3011 5.82347 35.3874 5.95336 35.4456 6.09634C35.5039 6.23931 35.533 6.39249 35.5312 6.54688V10.0625ZM40.2188 54.6772C40.1971 55.2843 39.9407 55.8592 39.5034 56.2808C39.0662 56.7024 38.4824 56.9379 37.875 56.9375H37.79C37.4823 56.9265 37.1798 56.8551 36.8997 56.7271C36.6196 56.5992 36.3675 56.4173 36.1577 56.1919C35.9479 55.9665 35.7846 55.702 35.6772 55.4134C35.5697 55.1249 35.5201 54.818 35.5312 54.5103L36.7031 21.6978C36.7141 21.39 36.7856 21.0874 36.9135 20.8072C37.0414 20.527 37.2232 20.2748 37.4486 20.0649C37.674 19.855 37.9385 19.6916 38.2271 19.584C38.5157 19.4763 38.8226 19.4265 39.1304 19.4375C39.4382 19.4485 39.7408 19.5199 40.0209 19.6479C40.3011 19.7758 40.5533 19.9576 40.7632 20.183C40.9731 20.4084 41.1365 20.6729 41.2442 20.9615C41.3518 21.25 41.4016 21.557 41.3906 21.8647L40.2188 54.6772Z" fill="#FF0000"/>
</svg>
