<svg width="75" height="75" viewBox="0 0 75 75" fill="none" xmlns="http://www.w3.org/2000/svg">
<path d="M67.374 7.80029C67.16 7.5651 66.9005 7.37574 66.6112 7.24367C66.3219 7.1116 66.0088 7.03956 65.6909 7.03189C65.373 7.02422 65.0568 7.08109 64.7615 7.19906C64.4661 7.31703 64.1978 7.49366 63.9727 7.71826L62.1606 9.52148C61.941 9.74123 61.8177 10.0392 61.8177 10.3499C61.8177 10.6605 61.941 10.9585 62.1606 11.1782L63.8218 12.8364C63.9307 12.9458 64.0601 13.0326 64.2026 13.0919C64.3452 13.1511 64.498 13.1816 64.6523 13.1816C64.8067 13.1816 64.9595 13.1511 65.1021 13.0919C65.2446 13.0326 65.374 12.9458 65.4829 12.8364L67.2495 11.0786C68.1431 10.1865 68.2266 8.7334 67.374 7.80029ZM58.4971 13.1836L32.0537 39.5801C31.8934 39.7398 31.7768 39.938 31.7153 40.1558L30.4922 43.7988C30.4629 43.8977 30.4608 44.0026 30.4862 44.1025C30.5115 44.2025 30.5634 44.2937 30.6363 44.3666C30.7092 44.4395 30.8005 44.4914 30.9004 44.5167C31.0003 44.5421 31.1052 44.54 31.2041 44.5107L34.8442 43.2876C35.062 43.2261 35.2602 43.1095 35.4199 42.9492L61.8164 16.5029C62.0606 16.2561 62.1976 15.9229 62.1976 15.5757C62.1976 15.2285 62.0606 14.8953 61.8164 14.6484L60.3589 13.1836C60.1117 12.9372 59.777 12.7988 59.428 12.7988C59.079 12.7988 58.7442 12.9372 58.4971 13.1836Z" fill="#0EEE4A"/>
<path d="M56.5928 28.3682L38.7378 46.2583C38.0477 46.9501 37.1995 47.4634 36.2666 47.7539L32.4727 49.0239C31.5723 49.2782 30.6203 49.2878 29.715 49.0517C28.8097 48.8156 27.9837 48.3424 27.3221 47.6808C26.6605 47.0193 26.1873 46.1933 25.9512 45.2879C25.7151 44.3826 25.7247 43.4307 25.979 42.5303L27.249 38.7363C27.5387 37.8037 28.051 36.9555 28.7417 36.2651L46.6318 18.4072C46.7958 18.2434 46.9076 18.0347 46.9529 17.8074C46.9982 17.5801 46.9751 17.3444 46.8866 17.1302C46.798 16.916 46.6478 16.7329 46.4552 16.6041C46.2625 16.4752 46.036 16.4064 45.8042 16.4062H15.2344C13.0588 16.4063 10.9723 17.2705 9.43389 18.8089C7.89551 20.3473 7.03125 22.4338 7.03125 24.6094V59.7656C7.03125 61.9412 7.89551 64.0277 9.43389 65.5661C10.9723 67.1045 13.0588 67.9688 15.2344 67.9688H50.3906C52.5662 67.9688 54.6527 67.1045 56.1911 65.5661C57.7295 64.0277 58.5938 61.9412 58.5938 59.7656V29.1958C58.5936 28.964 58.5248 28.7375 58.3959 28.5448C58.2671 28.3522 58.084 28.202 57.8698 28.1134C57.6556 28.0249 57.4199 28.0018 57.1926 28.0471C56.9653 28.0924 56.7566 28.2042 56.5928 28.3682Z" fill="#0EEE4A"/>
</svg>
